# xmcd
#
# Track frame offsets:
#	150
#	48402
#	90755
#	140905
#	159195
#	180010
#	191125
#	240757
#	269017
#
# Disc length: 4320 seconds
#
# Revision: 1
# Processed by: cddbd v1.5.1PL0 Copyright (c) Steve Scherf et al.
# Submitted via: CDex 1.50Beta5
#
DISCID=6910de09
DTITLE=吉崎克彦 - 哀歌
DYEAR=1900
DGENRE=
TTITLE0=哀歌
TTITLE1=光のしづく
TTITLE2=雪月花によせて
TTITLE3=DUO絃舞三態 1楽章
TTITLE4=DUO絃舞三態 2楽章
TTITLE5=DUO絃舞三態 3楽章
TTITLE6=不思議見聞録
TTITLE7=風のトーンは南南西
TTITLE8=グリーンウインド
EXTD=
EXTT0=
EXTT1=
EXTT2=
EXTT3=
EXTT4=
EXTT5=
EXTT6=
EXTT7=
EXTT8=
PLAYORDER=
